<svg xmlns="http://www.w3.org/2000/svg" width="164.135" height="32.945" viewBox="0 0 164.135 32.945"><g transform="translate(-52.645 -134.255)"><path d="M21.5-42.036l13.644,19.1H8.8V-55.68H35.146Zm-1.223,1.223-9.739,9.739v6.4H31.806Z" transform="translate(43.845 189.935)"/><path d="M6.7-5.86,4.48-3.58V0H1.88V-14h2.6v7.18L11.4-14h2.92L8.44-7.74,14.68,0H11.64ZM26.94-3.24h-7L18.56,0H15.88l6.3-14h2.56L31.06,0H28.34Zm-.86-2.04L23.44-11.4,20.82-5.28Zm13.96.34V0h-2.6V-4.9L31.94-14h2.78l4.1,6.82L42.96-14h2.56ZM61.08.2a10.681,10.681,0,0,1-3.13-.46,6.532,6.532,0,0,1-2.39-1.22l.9-2.02a7.09,7.09,0,0,0,2.11,1.11,7.672,7.672,0,0,0,2.51.43,4.337,4.337,0,0,0,2.33-.5,1.515,1.515,0,0,0,.77-1.32,1.278,1.278,0,0,0-.43-.99,3.019,3.019,0,0,0-1.09-.61q-.66-.22-1.8-.5a20.982,20.982,0,0,1-2.59-.76,4.262,4.262,0,0,1-1.7-1.19,3.206,3.206,0,0,1-.71-2.19,3.736,3.736,0,0,1,.63-2.11,4.263,4.263,0,0,1,1.9-1.51,7.7,7.7,0,0,1,3.11-.56,10.045,10.045,0,0,1,2.52.32,6.966,6.966,0,0,1,2.14.92l-.82,2.02a8.09,8.09,0,0,0-1.92-.82,7.182,7.182,0,0,0-1.94-.28,4.053,4.053,0,0,0-2.29.52,1.6,1.6,0,0,0-.75,1.38,1.248,1.248,0,0,0,.43.98,3.107,3.107,0,0,0,1.09.6q.66.22,1.8.5a18.941,18.941,0,0,1,2.56.75,4.384,4.384,0,0,1,1.71,1.19,3.136,3.136,0,0,1,.71,2.16,3.688,3.688,0,0,1-.63,2.1A4.285,4.285,0,0,1,64.2-.36,7.77,7.77,0,0,1,61.08.2ZM71.32-14h2.6V0h-2.6Zm20.82,0V0H90L82.28-9.48V0H79.7V-14h2.14l7.72,9.48V-14Zm15.32,6.84h2.46v5.58A7.822,7.822,0,0,1,107.4-.26a9.669,9.669,0,0,1-2.96.46,7.983,7.983,0,0,1-3.86-.93,6.909,6.909,0,0,1-2.7-2.57A7.073,7.073,0,0,1,96.9-7a7.073,7.073,0,0,1,.98-3.7,6.892,6.892,0,0,1,2.71-2.57,8.083,8.083,0,0,1,3.89-.93,8.493,8.493,0,0,1,3.2.58,6.279,6.279,0,0,1,2.42,1.7l-1.64,1.6a5.26,5.26,0,0,0-3.86-1.6,5.454,5.454,0,0,0-2.63.62,4.521,4.521,0,0,0-1.8,1.74A5.006,5.006,0,0,0,99.52-7a4.928,4.928,0,0,0,.65,2.52,4.661,4.661,0,0,0,1.8,1.76,5.275,5.275,0,0,0,2.61.64,5.632,5.632,0,0,0,2.88-.72ZM127.78-14V0h-2.6V-6h-7.24V0h-2.6V-14h2.6v5.78h7.24V-14Z" transform="translate(89 167)"/></g></svg>